<?xml version="1.0" encoding="UTF-8" standalone="no"?>
<svg
   xmlns:dc="http://purl.org/dc/elements/1.1/"
   xmlns:cc="http://creativecommons.org/ns#"
   xmlns:rdf="http://www.w3.org/1999/02/22-rdf-syntax-ns#"
   xmlns:svg="http://www.w3.org/2000/svg"
   xmlns="http://www.w3.org/2000/svg"
   xmlns:sodipodi="http://sodipodi.sourceforge.net/DTD/sodipodi-0.dtd"
   xmlns:inkscape="http://www.inkscape.org/namespaces/inkscape"
   height="21"
   width="16"
   version="1.1"
   id="svg2"
   inkscape:version="0.92.3 (2405546, 2018-03-11)"
   sodipodi:docname="shade-focus.svg">
  <metadata
     id="metadata17">
    <rdf:RDF>
      <cc:Work
         rdf:about="">
        <dc:format>image/svg+xml</dc:format>
        <dc:type
           rdf:resource="http://purl.org/dc/dcmitype/StillImage" />
        <dc:title></dc:title>
      </cc:Work>
    </rdf:RDF>
  </metadata>
  <sodipodi:namedview
     pagecolor="#ffffff"
     bordercolor="#666666"
     borderopacity="1"
     objecttolerance="10"
     gridtolerance="10"
     guidetolerance="10"
     inkscape:pageopacity="0"
     inkscape:pageshadow="2"
     inkscape:window-width="1015"
     inkscape:window-height="704"
     id="namedview15"
     showgrid="true"
     inkscape:zoom="22.625"
     inkscape:cx="8"
     inkscape:cy="10.5"
     inkscape:window-x="343"
     inkscape:window-y="0"
     inkscape:window-maximized="0"
     inkscape:current-layer="svg2"
     showguides="true"
     inkscape:guide-bbox="true"
     inkscape:snap-global="true"
     inkscape:snap-bbox="true">
    <inkscape:grid
       type="xygrid"
       id="grid2986" />
    <sodipodi:guide
       orientation="0,1"
       position="3,15"
       id="guide2986"
       inkscape:locked="false" />
    <sodipodi:guide
       orientation="0,1"
       position="1,6"
       id="guide2988"
       inkscape:locked="false" />
    <sodipodi:guide
       orientation="1,0"
       position="12.54661,16"
       id="guide2990"
       inkscape:locked="false" />
    <sodipodi:guide
       orientation="1,0"
       position="3.4703391,14"
       id="guide2992"
       inkscape:locked="false" />
  </sodipodi:namedview>
  <defs
     id="defs4">
    <linearGradient
       id="a"
       y2="12.083"
       gradientUnits="userSpaceOnUse"
       x2="11.17"
       gradientTransform="matrix(.70711 .70711 -.70711 .70711 10.121 -2.435)"
       y1="7.8436"
       x1="6.9308">
      <stop
         offset="0"
         id="stop7" />
      <stop
         stop-color="#646464"
         offset="1"
         id="stop9" />
    </linearGradient>
  </defs>
  <path
     inkscape:connector-curvature="0"
     style="fill:#E6823A;stroke-width:0.88552988;fill-opacity:1;opacity:0.6"
     d="M 14.378207,13 C 13.692848,12.31 13.000432,11.603 12.29547,10.992 11.511307,10.313 10.7491,9.705 10.011987,9.167 9.331333,8.67 8.6208812,8.297 8.1049019,8 7.5889226,8.297 6.8784708,8.67 6.1978172,9.167 a 35.145407,44.819 0 0 0 -2.283483,1.825 C 3.2085873,11.602 2.5169555,12.309 1.8315969,13 H 3 c 0.4109014,-0.4 0.8327812,-0.837 1.274265,-1.222 0.5567559,-0.486 1.1268424,-0.942 1.7094756,-1.37 A 30.739979,39.201 0 0 1 7.9441485,9.123 h 7.841e-4 L 8.1049019,9.027 8.264087,9.123 c 0.5567558,0.334 1.369933,0.852 1.961192,1.285 0.583417,0.428 1.15272,0.884 1.71026,1.37 0.4407,0.385 0.862579,0.822 1.274265,1.222 z"
     id="path2" />
</svg>
